<mxfile host="app.diagrams.net" modified="2024-02-11T02:09:02.775Z" agent="Mozilla/5.0 (Windows NT 10.0; Win64; x64) AppleWebKit/537.36 (KHTML, like Gecko) Chrome/121.0.0.0 Safari/537.36" etag="DQxyS9by67tVz0eNt0wq" version="23.1.2" type="device">
  <diagram name="第 1 页" id="kpf8cvodmc4U9N_w7QO-">
    <mxGraphModel dx="1221" dy="660" grid="1" gridSize="10" guides="1" tooltips="1" connect="1" arrows="1" fold="1" page="1" pageScale="1" pageWidth="827" pageHeight="1169" math="0" shadow="0">
      <root>
        <mxCell id="0" />
        <mxCell id="1" parent="0" />
        <mxCell id="6sCxkdauYgKf0qxZUkQ1-9" style="edgeStyle=orthogonalEdgeStyle;rounded=0;orthogonalLoop=1;jettySize=auto;html=1;entryX=0;entryY=0.5;entryDx=0;entryDy=0;" edge="1" parent="1" source="6sCxkdauYgKf0qxZUkQ1-3" target="6sCxkdauYgKf0qxZUkQ1-6">
          <mxGeometry relative="1" as="geometry" />
        </mxCell>
        <mxCell id="6sCxkdauYgKf0qxZUkQ1-10" style="edgeStyle=orthogonalEdgeStyle;rounded=0;orthogonalLoop=1;jettySize=auto;html=1;entryX=0;entryY=0.5;entryDx=0;entryDy=0;" edge="1" parent="1" source="6sCxkdauYgKf0qxZUkQ1-3" target="6sCxkdauYgKf0qxZUkQ1-7">
          <mxGeometry relative="1" as="geometry" />
        </mxCell>
        <mxCell id="6sCxkdauYgKf0qxZUkQ1-11" style="edgeStyle=orthogonalEdgeStyle;rounded=0;orthogonalLoop=1;jettySize=auto;html=1;entryX=0;entryY=0.5;entryDx=0;entryDy=0;" edge="1" parent="1" source="6sCxkdauYgKf0qxZUkQ1-3" target="6sCxkdauYgKf0qxZUkQ1-8">
          <mxGeometry relative="1" as="geometry" />
        </mxCell>
        <mxCell id="6sCxkdauYgKf0qxZUkQ1-3" value="a" style="rounded=0;whiteSpace=wrap;html=1;" vertex="1" parent="1">
          <mxGeometry x="90" y="320" width="120" height="60" as="geometry" />
        </mxCell>
        <mxCell id="6sCxkdauYgKf0qxZUkQ1-4" value="" style="rounded=1;whiteSpace=wrap;html=1;" vertex="1" parent="1">
          <mxGeometry x="414" y="200" width="120" height="360" as="geometry" />
        </mxCell>
        <mxCell id="6sCxkdauYgKf0qxZUkQ1-5" value="内存" style="text;html=1;strokeColor=none;fillColor=none;align=center;verticalAlign=middle;whiteSpace=wrap;rounded=0;" vertex="1" parent="1">
          <mxGeometry x="444" y="170" width="60" height="30" as="geometry" />
        </mxCell>
        <mxCell id="6sCxkdauYgKf0qxZUkQ1-6" value="11" style="rounded=1;whiteSpace=wrap;html=1;" vertex="1" parent="1">
          <mxGeometry x="414" y="230" width="120" height="60" as="geometry" />
        </mxCell>
        <mxCell id="6sCxkdauYgKf0qxZUkQ1-7" value="12" style="rounded=1;whiteSpace=wrap;html=1;" vertex="1" parent="1">
          <mxGeometry x="414" y="320" width="120" height="60" as="geometry" />
        </mxCell>
        <mxCell id="6sCxkdauYgKf0qxZUkQ1-8" value="13" style="rounded=1;whiteSpace=wrap;html=1;" vertex="1" parent="1">
          <mxGeometry x="414" y="410" width="120" height="60" as="geometry" />
        </mxCell>
        <mxCell id="6sCxkdauYgKf0qxZUkQ1-12" value="a = 11" style="text;html=1;strokeColor=none;fillColor=none;align=center;verticalAlign=middle;whiteSpace=wrap;rounded=0;" vertex="1" parent="1">
          <mxGeometry x="330" y="230" width="60" height="30" as="geometry" />
        </mxCell>
        <mxCell id="6sCxkdauYgKf0qxZUkQ1-13" value="a = a +1" style="text;html=1;strokeColor=none;fillColor=none;align=center;verticalAlign=middle;whiteSpace=wrap;rounded=0;" vertex="1" parent="1">
          <mxGeometry x="330" y="320" width="60" height="30" as="geometry" />
        </mxCell>
      </root>
    </mxGraphModel>
  </diagram>
</mxfile>
